# xmcd
#
# Track frame offsets:
#	150
#	9184
#	22202
#	32285
#	46099
#	62607
#	74618
#	84265
#	95640
#	104845
#	114661
#	128001
#	138839
#	147104
#	159659
#	170233
#	181411
#	190117
#	200400
#	212393
#	225309
#	238725
#	250234
#	261536
#	274829
#	287373
#
# Disc length: 3982 seconds
#
# Revision: 1
# Processed by: cddbd v1.5.2PL0 Copyright (c) Steve Scherf et al.
# Submitted via: audiograbber 1.83.01
#
DISCID=710f8c1a
DTITLE=Verschiedene Interpreten - My Rifle, my pony and me
DYEAR=1993
DGENRE=Country
TTITLE0=Dean Martin and Ricky Nelson - My rifle, my pony and me
TTITLE1=James Stewart - The legend of Shenandoah
TTITLE2=Sons of the Pioneers - Montana
TTITLE3=Merle Kilgore - Nevada Smith
TTITLE4=Marty Robbins - Ballad of the Alamo
TTITLE5=Sons of the Pioneers - The searchers
TTITLE6=Johnny Western - Ballad of Paladin
TTITLE7=Johnny Cash - The sons of Katie Elder
TTITLE8=Frankie Laine - Rawhide
TTITLE9=Fess Parker - Ballad of Davy Crockett
TTITLE10=Dean Martin - Rio Bravo
TTITLE11=Tab Hunter - I´m a runaway
TTITLE12=Lorne Greene - Bonanza
TTITLE13=Johnny Horton - North to Alaska
TTITLE14=Sons of the Pioneers - Wagons west
TTITLE15=Tex Ritter - High noon
TTITLE16=Johnny Cash - The rebel Johnny Yuma
TTITLE17=Frankie Laine - Gunfight at O.K.Corral
TTITLE18=Kirk Douglas - And the moon grew brighter
TTITLE19=Marty Robbins - The hanging tree
TTITLE20=Roy Rogers and The Sons of the Pioneers - Pecos bill
TTITLE21=Roy Rogers - The yellow rose of Texas
TTITLE22=Roy Rogers - Roll on Texas moon
TTITLE23=Sons of the Pioneers - Song of the wagonmaster
TTITLE24=Roy Rogers - Don´t fence me in
TTITLE25=Dickson Hall - Cowboy
EXTD=
EXTT0=
EXTT1=
EXTT2=
EXTT3=
EXTT4=
EXTT5=
EXTT6=
EXTT7=
EXTT8=
EXTT9=
EXTT10=
EXTT11=
EXTT12=
EXTT13=
EXTT14=
EXTT15=
EXTT16=
EXTT17=
EXTT18=
EXTT19=
EXTT20=
EXTT21=
EXTT22=
EXTT23=
EXTT24=
EXTT25=
PLAYORDER=
